<svg width="40" height="40" viewBox="0 0 40 40" fill="none" xmlns="http://www.w3.org/2000/svg">
    <mask id="mask0_43_6460" style="mask-type:luminance" maskUnits="userSpaceOnUse" x="0" y="0"
        width="40" height="40">
        <path
            d="M20 40C31.0457 40 40 31.0457 40 20C40 8.95431 31.0457 0 20 0C8.95431 0 0 8.95431 0 20C0 31.0457 8.95431 40 20 40Z"
            fill="white" />
    </mask>
    <g mask="url(#mask0_43_6460)">
        <path d="M-8.40036 -5.53052H64.1572V52.7556H-8.40036V-5.53052Z" fill="#DE2910" />
    </g>
    <mask id="mask1_43_6460" style="mask-type:luminance" maskUnits="userSpaceOnUse" x="0" y="0"
        width="40" height="40">
        <path
            d="M20 40C31.0457 40 40 31.0457 40 20C40 8.95431 31.0457 0 20 0C8.95431 0 0 8.95431 0 20C0 31.0457 8.95431 40 20 40Z"
            fill="white" />
    </mask>
    <g mask="url(#mask1_43_6460)">
        <path
            d="M14.3894 15.6679L12.368 9.44678L10.3466 15.6679H3.80548L9.09732 19.5126L7.07592 25.7338L12.368 21.8889L17.66 25.7338L15.6386 19.5126L20.9305 15.6679H14.3894ZM26.9248 10.5016L28.0467 12.3713L28.238 10.1993L30.3627 9.7103L28.3563 8.85702L28.5476 6.68506L27.1161 8.3297L25.1097 7.47638L26.2315 9.34606L24.7999 10.9907L26.9248 10.5016ZM32.5528 16.2471L32.8613 18.4055L33.8804 16.4781L36.0284 16.8519L34.5103 15.2869L35.5297 13.3593L33.5719 14.3196L32.0538 12.7547L32.3622 14.9131L30.4046 15.8733L32.5528 16.2471ZM34.4777 24.7672L36.1947 23.4232L34.0157 23.5014L33.268 21.4531L32.669 23.5497L30.49 23.6278L32.2987 24.8453L31.6998 26.9419L33.4167 25.5979L35.2255 26.8153L34.4777 24.7672ZM28.3311 29.8243L28.4322 27.6464L27.0702 29.3489L25.03 28.5795L26.2284 30.4011L24.8661 32.1038L26.969 31.5269L28.1673 33.3485L28.2685 31.1704L30.3712 30.5935L28.3311 29.8243Z"
            fill="#FFDE00" />
    </g>
</svg>