<svg width="40" height="40" viewBox="0 0 40 40" fill="none" xmlns="http://www.w3.org/2000/svg">
    <circle cx="20" cy="20" r="20" fill="#F8F6FE" />
    <path
        d="M29.2745 31.0001H10.7255C9.77405 31.0001 9 30.226 9 29.2746V12.4511C9 11.4996 9.77405 10.7256 10.7255 10.7256H12.0196C12.2578 10.7256 12.451 10.9188 12.451 11.157V11.9991C12.451 12.2401 12.6373 12.4428 12.8665 12.4508C13.1057 12.4611 13.3137 12.2686 13.3137 12.0197V11.157C13.3137 10.9188 13.5069 10.7256 13.7451 10.7256H16.7647C17.0029 10.7256 17.1961 10.9188 17.1961 11.157V11.9991C17.1961 12.2401 17.3824 12.4428 17.6116 12.4508C17.8525 12.4611 18.0588 12.2669 18.0588 12.0197V11.157C18.0588 10.9188 18.2519 10.7256 18.4902 10.7256H21.5098C21.748 10.7256 21.9412 10.9188 21.9412 11.157V11.9991C21.9412 12.2401 22.1275 12.4428 22.3567 12.4508C22.5952 12.4611 22.8039 12.2691 22.8039 12.0197V11.157C22.8039 10.9188 22.9971 10.7256 23.2353 10.7256H26.2549C26.4931 10.7256 26.6863 10.9188 26.6863 11.157V11.9991C26.6863 12.2401 26.8726 12.4428 27.1018 12.4508C27.3418 12.4611 27.549 12.2678 27.549 12.0197V11.157C27.549 10.9188 27.7422 10.7256 27.9804 10.7256H29.2745C30.2259 10.7256 31 11.4996 31 12.4511V29.2746C31 30.226 30.2259 31.0001 29.2745 31.0001ZM10.7255 11.5883C10.2498 11.5883 9.86275 11.9754 9.86275 12.4511V29.2746C9.86275 29.7503 10.2498 30.1374 10.7255 30.1374H29.2745C29.7502 30.1374 30.1373 29.7503 30.1373 29.2746V12.4511C30.1373 11.9754 29.7502 11.5883 29.2745 11.5883H28.4118V12.0197C28.4118 12.7515 27.8077 13.3384 27.0716 13.313C26.3717 13.2885 25.8235 12.7114 25.8235 11.9991V11.5883H23.6667V12.0197C23.6667 12.7519 23.0621 13.3384 22.3265 13.313C21.6266 13.2885 21.0784 12.7114 21.0784 11.9991V11.5883H18.9216V12.0197C18.9216 12.7509 18.3179 13.3384 17.5814 13.313C16.8815 13.2885 16.3333 12.7114 16.3333 11.9991V11.5883H14.1765V12.0197C14.1765 12.7496 13.5743 13.3384 12.8363 13.313C12.1364 13.2885 11.5882 12.7114 11.5882 11.9991V11.5883H10.7255Z"
        fill="#9747FF" />
    <path
        d="M30.5686 15.902H9.43137C9.19313 15.902 9 15.7088 9 15.4706C9 15.2323 9.19313 15.0392 9.43137 15.0392H30.5686C30.8068 15.0392 31 15.2323 31 15.4706C31 15.7088 30.8068 15.902 30.5686 15.902ZM27.1176 13.3137C26.4041 13.3137 25.8235 12.7332 25.8235 12.0196V10.2941C25.8235 9.58054 26.4041 9 27.1176 9C27.8327 9 28.4118 9.57912 28.4118 10.2941V12.0196C28.4118 12.7332 27.8312 13.3137 27.1176 13.3137ZM27.1176 9.86275C26.8798 9.86275 26.6863 10.0563 26.6863 10.2941V12.0196C26.6863 12.2575 26.8798 12.451 27.1176 12.451C27.3555 12.451 27.549 12.2575 27.549 12.0196V10.2941C27.549 10.056 27.3558 9.86275 27.1176 9.86275ZM22.3725 13.3137C21.659 13.3137 21.0784 12.7332 21.0784 12.0196V10.2941C21.0784 9.58054 21.659 9 22.3725 9C23.0876 9 23.6667 9.57912 23.6667 10.2941V12.0196C23.6667 12.7332 23.0861 13.3137 22.3725 13.3137ZM22.3725 9.86275C22.1347 9.86275 21.9412 10.0563 21.9412 10.2941V12.0196C21.9412 12.2575 22.1347 12.451 22.3725 12.451C22.6104 12.451 22.8039 12.2575 22.8039 12.0196V10.2941C22.8039 10.056 22.6107 9.86275 22.3725 9.86275ZM17.6275 13.3137C16.9139 13.3137 16.3333 12.7332 16.3333 12.0196V10.2941C16.3333 9.58054 16.9139 9 17.6275 9C18.3425 9 18.9216 9.57912 18.9216 10.2941V12.0196C18.9216 12.7332 18.341 13.3137 17.6275 13.3137ZM17.6275 9.86275C17.3896 9.86275 17.1961 10.0563 17.1961 10.2941V12.0196C17.1961 12.2575 17.3896 12.451 17.6275 12.451C17.8653 12.451 18.0588 12.2575 18.0588 12.0196V10.2941C18.0588 10.056 17.8656 9.86275 17.6275 9.86275ZM12.8824 13.3137C12.1688 13.3137 11.5882 12.7332 11.5882 12.0196V10.2941C11.5882 9.58054 12.1688 9 12.8824 9C13.5974 9 14.1765 9.57912 14.1765 10.2941V12.0196C14.1765 12.7332 13.5959 13.3137 12.8824 13.3137ZM12.8824 9.86275C12.6445 9.86275 12.451 10.0563 12.451 10.2941V12.0196C12.451 12.2575 12.6445 12.451 12.8824 12.451C13.1202 12.451 13.3137 12.2575 13.3137 12.0196V10.2941C13.3137 10.056 13.1205 9.86275 12.8824 9.86275ZM14.6078 20.2157H12.451C12.2127 20.2157 12.0196 20.0225 12.0196 19.7843V17.6275C12.0196 17.3892 12.2127 17.1961 12.451 17.1961H14.6078C14.846 17.1961 15.0392 17.3892 15.0392 17.6275V19.7843C15.0392 20.0225 14.846 20.2157 14.6078 20.2157ZM12.8824 19.3529H14.1765V18.0588H12.8824V19.3529ZM18.9216 20.2157H16.7647C16.5265 20.2157 16.3333 20.0225 16.3333 19.7843V17.6275C16.3333 17.3892 16.5265 17.1961 16.7647 17.1961H18.9216C19.1598 17.1961 19.3529 17.3892 19.3529 17.6275V19.7843C19.3529 20.0225 19.1598 20.2157 18.9216 20.2157ZM17.1961 19.3529H18.4902V18.0588H17.1961V19.3529ZM23.2353 20.2157H21.0784C20.8402 20.2157 20.6471 20.0225 20.6471 19.7843V17.6275C20.6471 17.3892 20.8402 17.1961 21.0784 17.1961H23.2353C23.4735 17.1961 23.6667 17.3892 23.6667 17.6275V19.7843C23.6667 20.0225 23.4735 20.2157 23.2353 20.2157ZM21.5098 19.3529H22.8039V18.0588H21.5098V19.3529ZM27.549 20.2157H25.3922C25.154 20.2157 24.9608 20.0225 24.9608 19.7843V17.6275C24.9608 17.3892 25.154 17.1961 25.3922 17.1961H27.549C27.7872 17.1961 27.9804 17.3892 27.9804 17.6275V19.7843C27.9804 20.0225 27.7872 20.2157 27.549 20.2157ZM25.8235 19.3529H27.1176V18.0588H25.8235V19.3529ZM23.2353 24.5294H21.0784C20.8402 24.5294 20.6471 24.3362 20.6471 24.098V21.9412C20.6471 21.703 20.8402 21.5098 21.0784 21.5098H23.2353C23.4735 21.5098 23.6667 21.703 23.6667 21.9412V24.098C23.6667 24.3362 23.4735 24.5294 23.2353 24.5294ZM21.5098 23.6667H22.8039V22.3725H21.5098V23.6667ZM27.549 24.5294H25.3922C25.154 24.5294 24.9608 24.3362 24.9608 24.098V21.9412C24.9608 21.703 25.154 21.5098 25.3922 21.5098H27.549C27.7872 21.5098 27.9804 21.703 27.9804 21.9412V24.098C27.9804 24.3362 27.7872 24.5294 27.549 24.5294ZM25.8235 23.6667H27.1176V22.3725H25.8235V23.6667ZM23.2353 28.8431H21.0784C20.8402 28.8431 20.6471 28.65 20.6471 28.4118V26.2549C20.6471 26.0167 20.8402 25.8235 21.0784 25.8235H23.2353C23.4735 25.8235 23.6667 26.0167 23.6667 26.2549V28.4118C23.6667 28.65 23.4735 28.8431 23.2353 28.8431ZM21.5098 27.9804H22.8039V26.6863H21.5098V27.9804ZM27.549 28.8431H25.3922C25.154 28.8431 24.9608 28.65 24.9608 28.4118V26.2549C24.9608 26.0167 25.154 25.8235 25.3922 25.8235H27.549C27.7872 25.8235 27.9804 26.0167 27.9804 26.2549V28.4118C27.9804 28.65 27.7872 28.8431 27.549 28.8431ZM25.8235 27.9804H27.1176V26.6863H25.8235V27.9804ZM14.6078 24.5294H12.451C12.2127 24.5294 12.0196 24.3362 12.0196 24.098V21.9412C12.0196 21.703 12.2127 21.5098 12.451 21.5098H14.6078C14.846 21.5098 15.0392 21.703 15.0392 21.9412V24.098C15.0392 24.3362 14.846 24.5294 14.6078 24.5294ZM12.8824 23.6667H14.1765V22.3725H12.8824V23.6667ZM18.9216 24.5294H16.7647C16.5265 24.5294 16.3333 24.3362 16.3333 24.098V21.9412C16.3333 21.703 16.5265 21.5098 16.7647 21.5098H18.9216C19.1598 21.5098 19.3529 21.703 19.3529 21.9412V24.098C19.3529 24.3362 19.1598 24.5294 18.9216 24.5294ZM17.1961 23.6667H18.4902V22.3725H17.1961V23.6667ZM14.6078 28.8431H12.451C12.2127 28.8431 12.0196 28.65 12.0196 28.4118V26.2549C12.0196 26.0167 12.2127 25.8235 12.451 25.8235H14.6078C14.846 25.8235 15.0392 26.0167 15.0392 26.2549V28.4118C15.0392 28.65 14.846 28.8431 14.6078 28.8431ZM12.8824 27.9804H14.1765V26.6863H12.8824V27.9804ZM18.9216 28.8431H16.7647C16.5265 28.8431 16.3333 28.65 16.3333 28.4118V26.2549C16.3333 26.0167 16.5265 25.8235 16.7647 25.8235H18.9216C19.1598 25.8235 19.3529 26.0167 19.3529 26.2549V28.4118C19.3529 28.65 19.1598 28.8431 18.9216 28.8431ZM17.1961 27.9804H18.4902V26.6863H17.1961V27.9804Z"
        fill="#9747FF" />
</svg>