<svg width="40" height="40" viewBox="0 0 40 40" fill="none" xmlns="http://www.w3.org/2000/svg">
    <path
        d="M20 0.5C30.7696 0.5 39.5 9.23045 39.5 20C39.5 30.7696 30.7696 39.5 20 39.5C9.23045 39.5 0.5 30.7696 0.5 20C0.5 9.23045 9.23045 0.5 20 0.5Z"
        stroke="#28292B" />
    <path
        d="M5.33624 12.895L9.52374 8.49246L10.46 9.46496L6.27249 13.8687L5.33624 12.895ZM6.68249 14.3262L10.8687 9.92246L11.8062 10.895L7.61999 15.2987L6.68249 14.3262ZM7.98874 15.6962L12.175 11.2937L13.1125 12.265L8.92499 16.6687L7.98874 15.6962ZM29.29 25.2175L30.9337 23.4862L31.8712 24.46L30.225 26.195L29.29 25.2175ZM27.6837 28.8625L26.745 27.89L28.3562 26.195L29.29 27.17L27.6837 28.8625ZM30.6512 26.6337L32.28 24.9187L33.2162 25.8912L31.5837 27.61L30.6512 26.6337ZM29.0325 30.2925L28.095 29.3187L29.7162 27.61L30.6512 28.5862L29.0325 30.2925ZM32.8962 28.9725L31.9612 27.9962L33.585 26.2887L34.52 27.2612L32.8962 28.9725ZM30.3387 31.665L29.4025 30.6912L31.03 28.9775L31.965 29.9525L30.3387 31.665ZM33.0075 10.9937L34.6637 12.7125L33.7325 13.6925L32.0737 11.97L33.0075 10.9937ZM29.52 9.31371L30.4525 8.33496L32.0737 10.0175L31.14 10.9937L29.52 9.31371ZM28.1537 10.7237L29.085 9.74371L33.2937 14.1175L32.3637 15.0975L28.1537 10.7237ZM29.4137 14.7625L30.3487 13.7862L31.9837 15.4812L31.0525 16.4612L29.4137 14.7625ZM26.84 12.09L27.77 11.11L29.4112 12.8125L28.4762 13.7887L26.84 12.09ZM8.04249 24.3975L8.97374 23.4187L13.1875 27.7962L12.2562 28.775L8.04249 24.3975ZM10.1762 27.4987L11.8175 29.2025L10.8862 30.1812L9.24124 28.4762L10.1762 27.4987ZM6.67624 25.8075L7.60749 24.8275L9.24124 26.5237L8.30749 27.4987L6.67624 25.8075ZM5.36249 27.1737L6.29249 26.195L10.5062 30.5662L9.57499 31.545L5.36249 27.1737Z"
        fill="#28292B" />
    <path
        d="M27.1375 20.0001C27.1794 21.9305 26.4531 23.7986 25.1182 25.1937C23.7833 26.5888 21.9491 27.3968 20.0187 27.4401C18.0886 27.3965 16.2547 26.5883 14.9201 25.1932C13.5854 23.7982 12.8593 21.9303 12.9012 20.0001C12.859 18.0697 13.585 16.2015 14.9196 14.8061C16.2543 13.4108 18.0883 12.6024 20.0187 12.5588C21.9492 12.6024 23.7834 13.4107 25.1183 14.806C26.4531 16.2014 27.1794 18.0696 27.1375 20.0001Z"
        fill="#2E4593" />
    <path
        d="M27.1 19.9999C27.1016 20.3479 27.0778 20.6955 27.0287 21.0399C26.8225 19.5662 26.0525 16.9074 23.1362 16.8562C22.418 16.7653 21.6909 16.9325 21.0844 17.3279C20.478 17.7232 20.0317 18.3211 19.825 19.0149C19.1737 20.7037 19.1037 22.7649 16.2412 22.7649C15.4502 22.8197 14.667 22.5788 14.0434 22.089C13.4198 21.5991 13.0003 20.8952 12.8662 20.1137C12.8638 20.0771 12.8638 20.0403 12.8662 20.0037C12.8629 18.7874 13.1486 17.5878 13.7 16.5037C14.2803 15.3284 15.1752 14.3371 16.2852 13.6399C17.3952 12.9428 18.6768 12.5672 19.9875 12.5549C21.9175 12.6005 23.7504 13.4101 25.084 14.806C26.4175 16.2019 27.1426 18.0699 27.1 19.9999Z"
        fill="#DB2E2E" />
</svg>