<svg width="40" height="40" viewBox="0 0 40 40" fill="none" xmlns="http://www.w3.org/2000/svg">
    <circle cx="20" cy="20" r="20" fill="#F8F6FE" />
    <path
        d="M19.998 9.90039C22.1935 9.89984 24.3403 10.5501 26.166 11.7695C27.9916 12.9889 29.4146 14.7228 30.2549 16.751C31.0951 18.7791 31.3149 21.0109 30.8867 23.1641C30.4584 25.3174 29.4012 27.2953 27.8486 28.8477C27.8061 28.8902 27.7557 28.9242 27.7002 28.9473C27.6445 28.9704 27.5838 28.9824 27.5234 28.9824C27.4633 28.9824 27.4032 28.9703 27.3477 28.9473C27.2921 28.9242 27.2417 28.8902 27.1992 28.8477L25.7471 27.3975V27.3965C25.7027 27.3555 25.6659 27.3069 25.6406 27.252C25.6147 27.1956 25.6003 27.1343 25.5986 27.0723C25.597 27.0101 25.6088 26.9474 25.6318 26.8896C25.6548 26.8321 25.6887 26.7793 25.7324 26.7354C25.7763 26.6913 25.829 26.657 25.8867 26.6338C25.9444 26.6106 26.0062 26.5992 26.0684 26.6006C26.1303 26.602 26.1916 26.6159 26.248 26.6416C26.3029 26.6666 26.3524 26.703 26.3936 26.7471L27.5146 27.8662C29.1275 26.1077 30.0666 23.8372 30.166 21.4531H28.6162C28.4946 21.4531 28.378 21.4043 28.292 21.3184C28.206 21.2324 28.1574 21.1157 28.1572 20.9941C28.1572 20.8724 28.2059 20.755 28.292 20.6689C28.378 20.583 28.4946 20.5342 28.6162 20.5342H30.166C30.058 18.1556 29.1183 15.8912 27.5098 14.1357L26.3965 15.252C26.3539 15.2946 26.3028 15.3285 26.2471 15.3516C26.1913 15.3746 26.1316 15.3867 26.0713 15.3867C26.011 15.3867 25.9512 15.3746 25.8955 15.3516C25.8399 15.3285 25.7897 15.2945 25.7471 15.252C25.7045 15.2094 25.6705 15.1591 25.6475 15.1035C25.6244 15.0478 25.6123 14.988 25.6123 14.9277C25.6123 14.8674 25.6244 14.8077 25.6475 14.752C25.6705 14.6963 25.7044 14.6452 25.7471 14.6025L26.8545 13.4883C25.0999 11.8789 22.8356 10.9391 20.457 10.833V12.375C20.457 12.4967 20.4093 12.6141 20.3232 12.7002C20.2371 12.7863 20.1198 12.835 19.998 12.835C19.8764 12.8349 19.7599 12.7861 19.6738 12.7002C19.5877 12.6141 19.5391 12.4968 19.5391 12.375V10.833C17.1604 10.9387 14.8955 11.878 13.1406 13.4873L14.2461 14.5996C14.2921 14.6415 14.3297 14.6924 14.3555 14.749C14.3812 14.8055 14.3951 14.8667 14.3965 14.9287C14.3979 14.9909 14.3865 15.0527 14.3633 15.1104C14.3401 15.1681 14.3058 15.2208 14.2617 15.2646C14.2177 15.3085 14.1652 15.3432 14.1074 15.3662C14.0498 15.3892 13.9878 15.4 13.9258 15.3984C13.8636 15.3968 13.8016 15.3824 13.7451 15.3564C13.6888 15.3305 13.6383 15.2931 13.5967 15.2471V15.2461L12.4883 14.1367C10.8794 15.8919 9.93851 18.1557 9.83008 20.5342H11.3799C11.5015 20.5342 11.618 20.583 11.7041 20.6689C11.7902 20.755 11.8389 20.8724 11.8389 20.9941C11.8387 21.1157 11.7901 21.2324 11.7041 21.3184C11.618 21.4043 11.5015 21.4531 11.3799 21.4531H9.83008C9.92952 23.8391 10.8704 26.1118 12.4863 27.8701L13.6055 26.751C13.6481 26.7083 13.6992 26.6744 13.7549 26.6514C13.8105 26.6283 13.8704 26.6162 13.9307 26.6162C13.9909 26.6162 14.0508 26.6283 14.1064 26.6514C14.162 26.6744 14.2123 26.7085 14.2549 26.751C14.2975 26.7936 14.3314 26.8447 14.3545 26.9004C14.3775 26.9561 14.3896 27.0159 14.3896 27.0762C14.3896 27.1364 14.3775 27.1963 14.3545 27.252C14.3314 27.3075 14.2974 27.3578 14.2549 27.4004L12.8047 28.8496C12.7621 28.8925 12.7111 28.9269 12.6553 28.9502C12.5994 28.9734 12.539 28.9854 12.4785 28.9854C12.418 28.9853 12.3576 28.9735 12.3018 28.9502C12.2459 28.9269 12.195 28.8926 12.1523 28.8496C10.5997 27.2978 9.54305 25.3199 9.11426 23.167C8.68547 21.014 8.90448 18.7823 9.74414 16.7539C10.5839 14.7255 12.0068 12.9914 13.832 11.7715C15.6572 10.5517 17.8028 9.90059 19.998 9.90039Z"
        fill="#9747FF" stroke="#9747FF" stroke-width="0.2" />
    <path
        d="M15.8407 16.3315C15.9757 16.3316 16.1056 16.3855 16.201 16.481L18.787 19.0679C19.1486 18.8391 19.5683 18.7167 19.9979 18.7173H20.1483V18.7271C20.606 18.7573 21.0456 18.9236 21.4081 19.2085C21.81 19.5245 22.094 19.9666 22.2147 20.4634C22.3355 20.9602 22.2862 21.4835 22.0741 21.9487C21.862 22.414 21.4991 22.7942 21.0448 23.0288C20.5905 23.2635 20.0704 23.339 19.5682 23.2427C19.0662 23.1464 18.6105 22.8845 18.2753 22.4985C17.94 22.1125 17.7446 21.6245 17.7196 21.1138C17.6967 20.6456 17.8198 20.1836 18.0682 19.7886L15.4803 17.2017C15.3849 17.1062 15.331 16.9764 15.3309 16.8413C15.3309 16.7062 15.3848 16.5765 15.4803 16.481C15.5759 16.3854 15.7056 16.3315 15.8407 16.3315ZM19.7479 19.7583C19.5031 19.8077 19.2787 19.9291 19.1024 20.106C18.926 20.283 18.8051 20.5082 18.7567 20.7534C18.7083 20.9986 18.7341 21.253 18.83 21.4839C18.9258 21.7146 19.088 21.9116 19.2958 22.0503C19.5036 22.189 19.748 22.2632 19.9979 22.2632L20.1219 22.2573C20.2458 22.245 20.3679 22.2145 20.4833 22.1665C20.6367 22.1026 20.7761 22.0089 20.8934 21.8911C21.0109 21.7732 21.1045 21.6329 21.1678 21.479C21.2312 21.3251 21.263 21.1601 21.2626 20.9937L21.2479 20.8081C21.2199 20.6243 21.1523 20.448 21.0477 20.2925C20.9082 20.0851 20.7096 19.9236 20.4784 19.8286C20.2473 19.7337 19.9928 19.709 19.7479 19.7583Z"
        fill="#9747FF" stroke="#9747FF" stroke-width="0.3" />
</svg>