<svg width="40" height="40" viewBox="0 0 40 40" fill="none" xmlns="http://www.w3.org/2000/svg">
    <g clip-path="url(#clip0_43_6461)">
        <path
            d="M0.0901885 21.8706H39.9114V21.8712H0.0901885V21.8706ZM2.16426 10.9526H37.8358V10.9532H2.16426V10.9526ZM0.745741 14.5914H39.253V14.592H0.745741V14.5914ZM8.59598 36.4265H31.4044L31.4055 36.4252H8.59472L8.59598 36.4265ZM19.9999 0C19.607 0 19.2173 0.0141869 18.8305 0.0363117H21.1695C20.7823 0.0141869 20.3927 0 19.9999 0ZM0.0825884 18.231H39.9165V18.2316H0.0825884V18.231Z"
            fill="#C42126" />
        <path
            d="M25.9112 7.3138H35.4613C34.3269 5.93286 33.0086 4.71042 31.548 3.67554H24.3767C24.9701 4.71954 25.4804 5.95143 25.9112 7.3138Z"
            fill="#E7E7E7" />
        <path
            d="M24.3767 3.67557H31.548C28.5834 1.57464 25.0241 0.258976 21.1695 0.036377H20.5538C22.368 0.264718 23.2013 1.60741 24.3767 3.67557Z"
            fill="#DC3027" />
        <path
            d="M39.2543 14.5916C38.902 13.3352 38.4269 12.1166 37.8357 10.9534H26.8487C27.0713 12.1215 27.2469 13.3417 27.377 14.5916H39.2543Z"
            fill="#E7E7E7" />
        <path
            d="M26.2307 10.9528H37.8354C37.1741 9.6521 36.3796 8.43152 35.4613 7.31396H25.3241C25.6816 8.44545 25.9851 9.66603 26.2307 10.9528Z"
            fill="#DC3027" />
        <path
            d="M27.7977 21.8697H39.9098C39.9673 21.2543 39.9998 20.6306 39.9998 20.0003C39.9998 19.4037 39.9686 18.8148 39.9174 18.2312H27.8005C27.8401 19.4437 27.8392 20.6572 27.7977 21.8697Z"
            fill="#E7E7E7" />
        <path
            d="M39.9177 18.2305C39.8099 16.9998 39.5878 15.7818 39.2543 14.5923H26.8667C26.9911 15.7837 27.0733 17.0027 27.1134 18.2305H39.9177Z"
            fill="#DC3027" />
        <path
            d="M26.6397 29.1479H37.7833C38.3827 27.9854 38.8657 26.7665 39.2252 25.509H27.1784C27.0458 26.7609 26.8657 27.9808 26.6397 29.1479Z"
            fill="#E7E7E7" />
        <path
            d="M39.2255 25.5086C39.5664 24.3198 39.7956 23.1018 39.9102 21.8704H27.4203C27.3776 23.0991 27.293 24.3178 27.1661 25.5086H39.2255Z"
            fill="#DC3027" />
        <path
            d="M31.4055 36.4251C32.8872 35.3944 34.2242 34.1707 35.3766 32.7869H25.9929C25.5543 34.1549 25.0335 35.3848 24.4294 36.4251H31.4055Z"
            fill="#E7E7E7" />
        <path
            d="M25.6398 32.7868H35.3766C36.3057 31.6705 37.1122 30.4499 37.7832 29.1479H26.5578C26.3087 30.4357 26.0021 31.6568 25.6398 32.7868ZM19.2751 39.9859C19.2346 39.9846 19.1943 39.9828 19.1538 39.9815C19.1943 39.9827 19.2347 39.9846 19.2751 39.9859ZM19.9999 40.0001C24.24 40.0001 28.1687 38.6766 31.4044 36.4266H24.1661C22.8814 38.6399 22.0338 40.0001 19.9999 40.0001Z"
            fill="#DC3027" />
        <path
            d="M19.9999 40C19.757 40 19.5157 39.9944 19.2752 39.9858C19.5183 39.994 19.7598 40 19.9999 40Z"
            fill="#C42126" />
        <path
            d="M25.0389 3.67554H8.45234C6.99152 4.71042 5.6734 5.93277 4.5387 7.3138H26.573C26.1423 5.95143 25.6323 4.71954 25.0389 3.67554Z"
            fill="#F3F4F5" />
        <path
            d="M8.45234 3.67557H25.0389C23.8633 1.60741 22.368 0.264718 20.5538 0.036377H18.8305C14.9759 0.258976 11.4166 1.57464 8.45234 3.67557Z"
            fill="#E73625" />
        <path
            d="M0.746078 14.5916H28.0077C27.8776 13.3414 27.702 12.1215 27.4794 10.9534H2.1646C1.57341 12.1166 1.09828 13.3352 0.746078 14.5916Z"
            fill="#F3F4F5" />
        <path
            d="M4.53871 7.31372C3.62103 8.43128 2.82589 9.65177 2.16494 10.9526H27.4794C27.234 9.66604 26.9306 8.44555 26.573 7.31372H4.53871Z"
            fill="#E73625" />
        <path
            d="M0.000169343 20.0002C0.000169343 20.6305 0.0330187 21.2543 0.0901885 21.8697H28.2521C28.2938 20.6602 28.2944 19.4416 28.2549 18.2314H0.0825884C0.0314143 18.8148 0.000169343 19.4037 0.000169343 20.0002Z"
            fill="#F3F4F5" />
        <path
            d="M0.0825884 18.2305H28.2546C28.2155 17.0153 28.1332 15.8017 28.0079 14.5923H0.745741C0.412206 15.7818 0.190197 16.9998 0.0825884 18.2305Z"
            fill="#E73625" />
        <path
            d="M27.9979 25.5088H0.77479C1.1344 26.7663 1.61738 27.9851 2.2167 29.1476H27.4591C27.6853 27.9808 27.8649 26.7609 27.9979 25.5088Z"
            fill="#F3F4F5" />
        <path
            d="M0.77479 25.5086H27.9979C28.1246 24.3178 28.2094 23.0988 28.2521 21.8704H0.0901885C0.204843 23.1018 0.434035 24.3198 0.77479 25.5086Z"
            fill="#E73625" />
        <path
            d="M8.59472 36.4251H24.9779C25.5821 35.3846 26.1031 34.1549 26.5415 32.7869H4.62366C5.7782 34.1722 7.11387 35.3959 8.59472 36.4251Z"
            fill="#F3F4F5" />
        <path
            d="M2.21704 29.1477C2.88813 30.4497 3.69459 31.6703 4.62366 32.7866H26.5415C26.9034 31.6567 27.21 30.4355 27.4591 29.1477H2.21704ZM19.1538 39.9812C19.1943 39.9825 19.2346 39.9844 19.2751 39.9856C19.5157 39.9942 19.757 39.9998 19.9998 39.9998C22.0338 39.9998 23.6923 38.6397 24.9773 36.4263H8.59598C11.6147 38.5258 15.2381 39.818 19.1538 39.9812Z"
            fill="#E73625" />
        <path
            d="M19.5864 0.010498C9.3375 0.218995 0.984131 8.13232 0.0851218 18.1982H19.5868V0.010498H19.5864Z"
            fill="#283991" />
        <path
            d="M4.00188 11.3315L4.30656 12.2697H5.29373L4.49513 12.8498L4.80015 13.7887L4.00188 13.2082L3.20387 13.7887L3.5083 12.8498L2.70995 12.2697H3.69712L4.00188 11.3315ZM4.00188 14.6461L4.30656 15.5849H5.29373L4.49513 16.165L4.80015 17.1039L4.00188 16.5234L3.20387 17.1039L3.5083 16.165L2.70995 15.5849H3.69712L4.00188 14.6461ZM7.31705 6.3584L7.62182 7.29693H8.60865L7.8103 7.87741L8.11507 8.81561L7.31705 8.2358L6.5187 8.81561L6.82347 7.87741L6.02478 7.29693H7.01195L7.31705 6.3584ZM7.31705 9.67357L7.62182 10.6121H8.60865L7.8103 11.1919L8.11507 12.1308L7.31705 11.551L6.5187 12.1308L6.82347 11.1919L6.02478 10.6121H7.01195L7.31705 9.67357ZM7.31705 12.9887L7.62182 13.9276H8.60865L7.8103 14.5071L8.11507 15.4459L7.31705 14.8656L6.5187 15.4459L6.82347 14.5071L6.02478 13.9276H7.01195L7.31705 12.9887ZM1.48498 15.4459L1.17996 14.5071L1.97831 13.9273H0.991731L0.969606 13.8588C0.861413 14.195 0.762545 14.5342 0.673117 14.8759L0.687051 14.8656L1.48498 15.4459ZM3.20387 10.4735L4.00188 9.89313L4.80023 10.4735L4.49522 9.53466L5.29357 8.95427H4.30639L4.00163 8.01607L3.69687 8.95427H3.33307C3.26552 9.05661 3.20016 9.15955 3.13446 9.26342L3.50838 9.53466L3.20387 10.4735ZM7.31705 4.92063L8.11507 5.50044L7.8103 4.56224L8.60831 3.98185H8.0383C7.55443 4.34341 7.08729 4.72685 6.63836 5.13099L6.51803 5.50044L7.31705 4.92063ZM9.83387 3.84319L10.6322 3.26279L11.4302 3.84319L11.1255 2.90432L11.9235 2.32452H10.9367L10.8953 2.19819C10.5609 2.36902 10.2299 2.54678 9.9065 2.73594L10.1383 2.90424L9.83387 3.84319ZM10.6322 4.70116L10.937 5.6391H11.9238L11.1255 6.21949L11.4302 7.15836L10.6322 6.57788L9.83387 7.15836L10.1386 6.21949L9.34004 5.6391H10.3271L10.6322 4.70116ZM10.6322 8.01633L10.937 8.95427H11.9238L11.1255 9.53466L11.4302 10.4735L10.6322 9.89305L9.83387 10.4735L10.1386 9.53466L9.34004 8.95427H10.3271L10.6322 8.01633ZM10.6322 11.3315L10.937 12.2697H11.9238L11.1255 12.8498L11.4302 13.7887L10.6322 13.2082L9.83387 13.7887L10.1386 12.8498L9.34004 12.2697H10.3271L10.6322 11.3315ZM10.6322 14.6461L10.937 15.5849H11.9238L11.1255 16.165L11.4302 17.1039L10.6322 16.5234L9.83387 17.1039L10.1386 16.165L9.34004 15.5849H10.3271L10.6322 14.6461ZM13.9474 3.04323L14.2522 3.98176H15.239L14.441 4.56224L14.7454 5.50044L13.9474 4.92063L13.1488 5.50044L13.4538 4.56224L12.6552 3.98176H13.6423L13.9474 3.04323ZM13.9474 6.3584L14.2522 7.29693H15.239L14.441 7.87741L14.7454 8.81561L13.9474 8.2358L13.1488 8.81561L13.4538 7.87741L12.6552 7.29693H13.6423L13.9474 6.3584ZM13.9474 9.67357L14.2522 10.6121H15.239L14.441 11.1919L14.7454 12.1308L13.9474 11.551L13.1488 12.1308L13.4538 11.1919L12.6552 10.6121H13.6423L13.9474 9.67357ZM13.9474 12.9887L14.2522 13.9276H15.239L14.441 14.5071L14.7454 15.4459L13.9474 14.8656L13.1488 15.4459L13.4538 14.5071L12.6552 13.9276H13.6423L13.9474 12.9887ZM17.2626 1.38599L17.5673 2.32452H18.5542L17.7558 2.90432L18.0606 3.84319L17.2626 3.26271L16.464 3.84319L16.769 2.90432L15.9704 2.32452H16.9572L17.2626 1.38599ZM17.2626 4.70116L17.5673 5.6391H18.5542L17.7558 6.21949L18.0606 7.15836L17.2626 6.57788L16.464 7.15836L16.769 6.21949L15.9704 5.6391H16.9572L17.2626 4.70116ZM17.2626 8.01633L17.5673 8.95427H18.5542L17.7558 9.53466L18.0606 10.4735L17.2626 9.89305L16.464 10.4735L16.769 9.53466L15.9704 8.95427H16.9572L17.2626 8.01633ZM17.2626 11.3315L17.5673 12.2697H18.5542L17.7558 12.8498L18.0606 13.7887L17.2626 13.2082L16.464 13.7887L16.769 12.8498L15.9704 12.2697H16.9572L17.2626 11.3315ZM17.2626 14.6461L17.5673 15.5849H18.5542L17.7558 16.165L18.0606 17.1039L17.2626 16.5234L16.464 17.1039L16.769 16.165L15.9704 15.5849H16.9572L17.2626 14.6461Z"
            fill="#EFEFEF" />
    </g>
    <defs>
        <clipPath id="clip0_43_6461">
            <rect width="40" height="40" fill="white" />
        </clipPath>
    </defs>
</svg>